<svg width="290" height="76" viewBox="0 0 290 76" fill="none" xmlns="http://www.w3.org/2000/svg">
<path fill-rule="evenodd" clip-rule="evenodd" d="M9.8363 43.5315C4.08636 37.2233 0.796883 31.0135 0.796883 26.2449C0.796883 24.7553 1.11609 23.4075 1.78996 22.2371C4.66277 17.254 13.6181 16.1368 24.8611 18.7082C28.2482 7.71348 33.7101 0.531464 39.4557 0.531464C45.219 0.531464 50.6809 7.74895 54.068 18.8146C65.3464 16.261 74.3195 17.3959 77.1923 22.3967C77.8635 23.5448 78.1828 24.8863 78.1854 26.3513H78.2031C78.2031 31.0931 74.917 37.2599 69.1925 43.5315H62.5514C61.0008 42.0669 59.2979 40.6038 57.4551 39.1548C57.5188 40.5893 57.5682 42.0525 57.5776 43.5315H53.6055C53.5911 41.0206 53.4695 38.5126 53.27 36.0514C51.1597 34.5796 48.9076 33.1432 46.5313 31.76C44.2082 30.4122 41.8497 29.1886 39.4734 28.0714C37.0971 29.1886 34.7209 30.4122 32.3978 31.7422C30.0038 33.1254 27.7339 34.5441 25.6236 36.016C25.4074 38.4948 25.2847 41.0048 25.2704 43.5315H21.3333C21.3401 42.0408 21.3768 40.5658 21.4563 39.1193C19.5782 40.564 17.8454 42.0522 16.2711 43.5315H9.8363ZM74.2486 26.369C74.2391 30.0572 71.2962 35.4755 65.9316 41.2473C63.3248 38.7469 60.3456 36.2642 57.0649 33.8702C56.6393 29.8802 55.9832 26.0853 55.132 22.6095C56.9231 22.2194 58.6787 21.9002 60.3456 21.7051C67.1198 20.8894 72.3866 21.9357 73.7698 24.3474C74.0712 24.8971 74.2308 25.5533 74.2308 26.369H74.2486ZM44.2792 26.0143C46.6377 25.0922 48.9962 24.2765 51.2838 23.6203C51.8513 25.9434 52.3124 28.3729 52.6848 30.891C51.337 30.0221 49.9538 29.1531 48.5352 28.3374C47.1165 27.5039 45.6978 26.7414 44.2792 26.0143ZM27.6452 23.5671C29.9506 24.241 32.3269 25.0567 34.7031 26.0143C33.2845 26.7414 31.848 27.5039 30.4294 28.3197C28.993 29.1354 27.592 30.0044 26.2266 30.8733C26.599 28.3374 27.0778 25.8902 27.6452 23.5671ZM5.21249 24.241C6.61343 21.847 11.8802 20.8185 18.6544 21.6519C20.3036 21.847 22.0237 22.1662 23.8148 22.5741C22.9459 26.0498 22.2897 29.8447 21.8641 33.8525C18.5835 36.211 15.622 38.6937 13.0152 41.1764C7.67743 35.3953 4.75143 29.9512 4.75143 26.2803C4.75143 25.4646 4.8933 24.773 5.21249 24.241ZM28.6915 19.7367C29.2412 18.0166 29.8264 16.3496 30.4826 14.8246C33.1426 8.54695 36.6715 4.48601 39.4557 4.46828C42.2398 4.46828 45.751 8.52922 48.4288 14.8068C49.0849 16.3674 49.6878 18.0343 50.2376 19.7899C46.7796 20.783 43.1797 22.0953 39.4911 23.7267C35.7849 22.0775 32.1672 20.7475 28.6915 19.7367Z" fill="url(#paint0_linear)"/>
<path fill-rule="evenodd" clip-rule="evenodd" d="M9.8363 43.5315C4.08636 37.2233 0.796883 31.0135 0.796883 26.2449C0.796883 24.7553 1.11609 23.4075 1.78996 22.2371C4.66277 17.254 13.6181 16.1368 24.8611 18.7082C28.2482 7.71348 33.7101 0.531464 39.4557 0.531464C45.219 0.531464 50.6809 7.74895 54.068 18.8146C65.3464 16.261 74.3195 17.3959 77.1923 22.3967C77.8635 23.5448 78.1828 24.8863 78.1854 26.3513H78.2031C78.2031 31.0931 74.917 37.2599 69.1925 43.5315H62.5514C61.0008 42.0669 59.2979 40.6038 57.4551 39.1548C57.5188 40.5893 57.5682 42.0525 57.5776 43.5315H53.6055C53.5911 41.0206 53.4695 38.5126 53.27 36.0514C51.1597 34.5796 48.9076 33.1432 46.5313 31.76C44.2082 30.4122 41.8497 29.1886 39.4734 28.0714C37.0971 29.1886 34.7209 30.4122 32.3978 31.7422C30.0038 33.1254 27.7339 34.5441 25.6236 36.016C25.4074 38.4948 25.2847 41.0048 25.2704 43.5315H21.3333C21.3401 42.0408 21.3768 40.5658 21.4563 39.1193C19.5782 40.564 17.8454 42.0522 16.2711 43.5315H9.8363ZM74.2486 26.369C74.2391 30.0572 71.2962 35.4755 65.9316 41.2473C63.3248 38.7469 60.3456 36.2642 57.0649 33.8702C56.6393 29.8802 55.9832 26.0853 55.132 22.6095C56.9231 22.2194 58.6787 21.9002 60.3456 21.7051C67.1198 20.8894 72.3866 21.9357 73.7698 24.3474C74.0712 24.8971 74.2308 25.5533 74.2308 26.369H74.2486ZM44.2792 26.0143C46.6377 25.0922 48.9962 24.2765 51.2838 23.6203C51.8513 25.9434 52.3124 28.3729 52.6848 30.891C51.337 30.0221 49.9538 29.1531 48.5352 28.3374C47.1165 27.5039 45.6978 26.7414 44.2792 26.0143ZM27.6452 23.5671C29.9506 24.241 32.3269 25.0567 34.7031 26.0143C33.2845 26.7414 31.848 27.5039 30.4294 28.3197C28.993 29.1354 27.592 30.0044 26.2266 30.8733C26.599 28.3374 27.0778 25.8902 27.6452 23.5671ZM5.21249 24.241C6.61343 21.847 11.8802 20.8185 18.6544 21.6519C20.3036 21.847 22.0237 22.1662 23.8148 22.5741C22.9459 26.0498 22.2897 29.8447 21.8641 33.8525C18.5835 36.211 15.622 38.6937 13.0152 41.1764C7.67743 35.3953 4.75143 29.9512 4.75143 26.2803C4.75143 25.4646 4.8933 24.773 5.21249 24.241ZM28.6915 19.7367C29.2412 18.0166 29.8264 16.3496 30.4826 14.8246C33.1426 8.54695 36.6715 4.48601 39.4557 4.46828C42.2398 4.46828 45.751 8.52922 48.4288 14.8068C49.0849 16.3674 49.6878 18.0343 50.2376 19.7899C46.7796 20.783 43.1797 22.0953 39.4911 23.7267C35.7849 22.0775 32.1672 20.7475 28.6915 19.7367Z" fill="#60DAFB"/>
<path d="M47.5315 45.5315C47.5315 41.1132 43.9497 37.5315 39.5315 37.5315C35.1132 37.5315 31.5315 41.1132 31.5315 45.5315C31.5315 49.9497 35.1132 53.5315 39.5315 53.5315C43.9497 53.5315 47.5315 49.9497 47.5315 45.5315Z" fill="#1C5872"/>
<path d="M69.5315 56.3894V47.5315H57.5315V55.5609L49.5609 63.5315H29.5021L21.5315 55.5609V47.5315H9.53146V56.3894C9.53146 59.0415 10.5851 61.5851 12.4604 63.4604L21.6026 72.6025C23.4779 74.4779 26.0215 75.5315 28.6736 75.5315H31.5315V71.5315C31.5315 70.4269 32.4269 69.5315 33.5315 69.5315C34.6361 69.5315 35.5315 70.4269 35.5315 71.5315V75.5315H43.5315V71.5315C43.5315 70.4269 44.4269 69.5315 45.5315 69.5315C46.6361 69.5315 47.5315 70.4269 47.5315 71.5315V75.5315H50.3894C53.0415 75.5315 55.5851 74.4779 57.4604 72.6025L66.6025 63.4604C68.4779 61.5851 69.5315 59.0415 69.5315 56.3894Z" fill="#60DAFB"/>
<path d="M95.3876 31.7301H99.2777C101.548 31.7301 102.971 33.0924 102.971 35.2116C102.971 37.3761 101.624 38.693 99.3231 38.693H95.3876V31.7301ZM95.3876 42.008H99.0507L103.122 50.0002H108.299L103.698 41.3268C106.21 40.3429 107.663 37.9211 107.663 35.1208C107.663 30.8068 104.787 28.1579 99.7621 28.1579H90.8163V50.0002H95.3876V42.008Z" fill="#2E2E2E"/>
<path d="M117.427 36.695C119.394 36.695 120.742 38.1178 120.832 40.1916H113.945C114.097 38.1632 115.489 36.695 117.427 36.695ZM120.893 45.0353C120.484 46.2765 119.243 47.0788 117.623 47.0788C115.368 47.0788 113.9 45.4894 113.9 43.1735V42.901H125.086V41.5539C125.086 36.6193 122.104 33.4254 117.381 33.4254C112.583 33.4254 109.556 36.7858 109.556 41.9626C109.556 47.1544 112.553 50.3483 117.548 50.3483C121.559 50.3483 124.465 48.214 124.95 45.0353H120.893Z" fill="#2E2E2E"/>
<path d="M133.638 47.0636C132.14 47.0636 131.141 46.3068 131.141 45.0959C131.141 43.9455 132.079 43.2038 133.729 43.0827L137.15 42.8708V44.0514C137.15 45.8073 135.56 47.0636 133.638 47.0636ZM132.185 50.2575C134.213 50.2575 136.226 49.2433 137.135 47.5177H137.225V50.0002H141.494V38.8444C141.494 35.5749 138.785 33.4254 134.622 33.4254C130.323 33.4254 127.644 35.59 127.477 38.7384H131.519C131.731 37.5426 132.775 36.7253 134.425 36.7253C136.09 36.7253 137.15 37.6032 137.15 39.1169V40.1916L133.063 40.4337C129.021 40.6759 126.751 42.3864 126.751 45.338C126.751 48.2594 129.097 50.2575 132.185 50.2575Z" fill="#2E2E2E"/>
<path d="M159.098 39.8131C158.901 36.1349 156.116 33.4254 151.726 33.4254C146.868 33.4254 143.765 36.6647 143.765 41.8717C143.765 47.1696 146.868 50.3483 151.757 50.3483C156.025 50.3483 158.886 47.881 159.113 44.0514H154.996C154.724 45.8224 153.573 46.882 151.802 46.882C149.607 46.882 148.245 45.0656 148.245 41.8717C148.245 38.7384 149.607 36.8918 151.787 36.8918C153.603 36.8918 154.739 38.1027 154.996 39.8131H159.098Z" fill="#2E2E2E"/>
<path d="M162.428 30.0348V33.7736H160.142V37.1037H162.428V45.6256C162.428 48.7892 163.911 50.0607 167.726 50.0607C168.619 50.0607 169.376 49.985 169.83 49.8791V46.6247C169.557 46.6701 169.149 46.7003 168.755 46.7003C167.453 46.7003 166.848 46.11 166.848 44.8688V37.1037H169.845V33.7736H166.848V30.0348H162.428Z" fill="#2E2E2E"/>
<path d="M177.958 44.0666C178.185 47.8205 181.394 50.3483 185.966 50.3483C190.794 50.3483 193.882 47.8356 193.882 44.006C193.882 40.9635 192.036 39.2834 187.646 38.1784L185.285 37.5729C182.076 36.7555 180.713 35.6505 180.713 33.7736C180.713 31.3669 182.953 29.6867 185.981 29.6867C189.084 29.6867 191.264 31.3214 191.46 33.7887H193.534C193.413 30.3224 190.295 27.8097 186.041 27.8097C181.743 27.8097 178.564 30.3224 178.564 33.8493C178.564 36.7253 180.365 38.4357 184.407 39.465L187.116 40.1613C190.355 40.9787 191.763 42.1896 191.763 44.2331C191.763 46.6852 189.417 48.4713 186.147 48.4713C182.726 48.4713 180.259 46.6852 180.032 44.0666H177.958Z" fill="#2E2E2E"/>
<path d="M201.662 48.5319C199.528 48.5319 198.06 47.3512 198.06 45.6408C198.06 43.9001 199.437 42.8253 201.92 42.6588L206.582 42.341V44.0817C206.582 46.5793 204.417 48.5319 201.662 48.5319ZM201.254 50.2575C203.6 50.2575 205.749 48.9557 206.627 47.0031H206.673V50.0002H208.58V39.2228C208.58 36.0138 206.325 34.0006 202.737 34.0006C199.15 34.0006 196.834 35.9987 196.607 38.8141H198.544C198.892 36.9069 200.376 35.7716 202.692 35.7716C205.144 35.7716 206.582 37.1339 206.582 39.4044V40.7668L201.678 41.0695C198.045 41.3117 196.032 42.9464 196.032 45.6408C196.032 48.3957 198.151 50.2575 201.254 50.2575Z" fill="#2E2E2E"/>
<path d="M211.94 50.0002H213.938V40.6759C213.938 37.7545 215.77 35.7868 218.495 35.7868C221.128 35.7868 222.642 37.361 222.642 40.1159V50.0002H224.64V39.798C224.64 36.2257 222.521 34.0006 219.07 34.0006C216.527 34.0006 214.68 35.257 213.878 37.1642H213.832V34.258H211.94V50.0002Z" fill="#2E2E2E"/>
<path d="M240.821 39.2379C240.428 36.4225 238.051 34.0006 234.343 34.0006C230.059 34.0006 227.228 37.1642 227.228 42.1291C227.228 47.1696 230.059 50.2575 234.358 50.2575C237.839 50.2575 240.397 48.1383 240.836 45.1261H238.853C238.399 47.1696 236.749 48.4865 234.373 48.4865C231.3 48.4865 229.272 46.0797 229.272 42.1291C229.272 38.2389 231.285 35.7716 234.358 35.7716C236.84 35.7716 238.43 37.3004 238.853 39.2379H240.821Z" fill="#2E2E2E"/>
<path d="M244.197 30.3224V34.258H241.85V35.923H244.197V46.1252C244.197 48.9709 245.256 50.091 247.89 50.091C248.314 50.091 249.161 50.0456 249.373 50.0002V48.2897C249.252 48.32 248.495 48.3503 248.284 48.3503C246.83 48.3503 246.195 47.654 246.195 46.0343V35.923H249.298V34.258H246.195V30.3224H244.197Z" fill="#2E2E2E"/>
<path d="M264.767 34.258H262.769V43.5973C262.769 46.549 260.923 48.4713 258.183 48.4713C255.549 48.4713 254.066 46.9274 254.066 44.1422V34.258H252.053V44.4904C252.053 48.0324 254.187 50.2575 257.608 50.2575C260.105 50.2575 261.997 49.0163 262.83 47.0788H262.875V50.0002H264.767V34.258Z" fill="#2E2E2E"/>
<path d="M268.219 50.0002H270.217V40.3278C270.217 37.6486 271.882 35.7868 274.198 35.7868C276.347 35.7868 277.8 37.255 277.8 39.5104V50.0002H279.813V40.0856C279.813 37.5729 281.418 35.7868 283.749 35.7868C286.035 35.7868 287.397 37.255 287.397 39.692V50.0002H289.395V39.2379C289.395 36.0592 287.382 34.0006 284.309 34.0006C281.932 34.0006 280.086 35.3781 279.344 37.3156H279.299C278.708 35.3327 277.043 34.0006 274.743 34.0006C272.457 34.0006 270.837 35.3175 270.156 37.1642H270.111V34.258H268.219V50.0002Z" fill="#2E2E2E"/>
<defs>
<linearGradient id="paint0_linear" x1="69.0315" y1="44.5315" x2="0.725941" y2="44.0315" gradientUnits="userSpaceOnUse">
<stop stop-color="#7BE7EF"/>
<stop offset="0.867448" stop-color="#19CBF2"/>
</linearGradient>
</defs>
</svg>
